<svg width="39" height="30" viewBox="0 0 39 30" fill="none" xmlns="http://www.w3.org/2000/svg">
<path d="M4.5 30C3.46875 30 2.58625 29.6331 1.8525 28.8994C1.1175 28.1644 0.75 27.2812 0.75 26.25V3.75C0.75 2.71875 1.1175 1.83625 1.8525 1.1025C2.58625 0.3675 3.46875 0 4.5 0H34.5C35.5312 0 36.4144 0.3675 37.1494 1.1025C37.8831 1.83625 38.25 2.71875 38.25 3.75V26.25C38.25 27.2812 37.8831 28.1644 37.1494 28.8994C36.4144 29.6331 35.5312 30 34.5 30H4.5ZM34.5 7.5L20.4844 16.2656C20.3281 16.3594 20.1637 16.4294 19.9913 16.4756C19.82 16.5231 19.6562 16.5469 19.5 16.5469C19.3438 16.5469 19.18 16.5231 19.0087 16.4756C18.8363 16.4294 18.6719 16.3594 18.5156 16.2656L4.5 7.5V26.25H34.5V7.5ZM19.5 13.125L34.5 3.75H4.5L19.5 13.125ZM4.5 7.96875V5.20312V5.25V5.22563V7.96875Z" fill="url(#paint0_linear_1_68)"/>
<defs>
<linearGradient id="paint0_linear_1_68" x1="-4.76415" y1="-0.74047" x2="40.4743" y2="3.63613" gradientUnits="userSpaceOnUse">
<stop offset="0.270833" stop-color="#A3A3A3"/>
<stop offset="0.412103" stop-color="#CCCCCC"/>
<stop offset="0.551716" stop-color="white"/>
<stop offset="0.677083" stop-color="#CCCCCC"/>
<stop offset="0.833333" stop-color="#A3A3A3"/>
</linearGradient>
</defs>
</svg>
