<svg width="16" height="28" viewBox="0 0 16 28" fill="none" xmlns="http://www.w3.org/2000/svg">
<path d="M12.4271 26.8916L0.491695 14.9916C0.350028 14.8499 0.249917 14.6965 0.191361 14.5312C0.131861 14.3659 0.102112 14.1888 0.102112 13.9999C0.102112 13.8111 0.131861 13.634 0.191361 13.4687C0.249917 13.3034 0.350028 13.1499 0.491695 13.0083L12.4271 1.07286C12.7577 0.742304 13.1709 0.577026 13.6667 0.577026C14.1625 0.577026 14.5875 0.75411 14.9417 1.10828C15.2959 1.46244 15.4729 1.87564 15.4729 2.34786C15.4729 2.82008 15.2959 3.23328 14.9417 3.58744L4.52919 13.9999L14.9417 24.4124C15.2722 24.743 15.4375 25.1501 15.4375 25.6336C15.4375 26.1181 15.2604 26.5374 14.9063 26.8916C14.5521 27.2458 14.1389 27.4229 13.6667 27.4229C13.1945 27.4229 12.7813 27.2458 12.4271 26.8916Z" fill="url(#paint0_linear_1_92)"/>
<defs>
<linearGradient id="paint0_linear_1_92" x1="-2.15808" y1="-0.0855912" x2="16.5215" y2="0.742173" gradientUnits="userSpaceOnUse">
<stop offset="0.270833" stop-color="#A3A3A3"/>
<stop offset="0.412103" stop-color="#CCCCCC"/>
<stop offset="0.551716" stop-color="white"/>
<stop offset="0.677083" stop-color="#CCCCCC"/>
<stop offset="0.833333" stop-color="#A3A3A3"/>
</linearGradient>
</defs>
</svg>
