<svg width="16" height="28" viewBox="0 0 16 28" fill="none" xmlns="http://www.w3.org/2000/svg">
<path d="M3.57289 26.8916L15.5083 14.9916C15.65 14.8499 15.7501 14.6965 15.8086 14.5312C15.8681 14.3659 15.8979 14.1888 15.8979 13.9999C15.8979 13.8111 15.8681 13.634 15.8086 13.4687C15.7501 13.3034 15.65 13.1499 15.5083 13.0083L3.57289 1.07286C3.24233 0.742304 2.82914 0.577026 2.33331 0.577026C1.83747 0.577026 1.41247 0.75411 1.05831 1.10828C0.704141 1.46244 0.527058 1.87564 0.527058 2.34786C0.527058 2.82008 0.704141 3.23328 1.05831 3.58744L11.4708 13.9999L1.05831 24.4124C0.727752 24.743 0.562473 25.1501 0.562473 25.6336C0.562473 26.1181 0.739557 26.5374 1.09372 26.8916C1.44789 27.2458 1.86108 27.4229 2.33331 27.4229C2.80553 27.4229 3.21872 27.2458 3.57289 26.8916Z" fill="url(#paint0_linear_1_90)"/>
<defs>
<linearGradient id="paint0_linear_1_90" x1="18.1581" y1="-0.0855912" x2="-0.521534" y2="0.742173" gradientUnits="userSpaceOnUse">
<stop offset="0.270833" stop-color="#A3A3A3"/>
<stop offset="0.412103" stop-color="#CCCCCC"/>
<stop offset="0.551716" stop-color="white"/>
<stop offset="0.677083" stop-color="#CCCCCC"/>
<stop offset="0.833333" stop-color="#A3A3A3"/>
</linearGradient>
</defs>
</svg>
