<svg width="105" height="68" viewBox="0 0 105 68" fill="none" xmlns="http://www.w3.org/2000/svg">
<rect x="5.4203" y="5.42024" width="57.1594" height="57.1594" rx="28.5797" stroke="url(#paint0_linear_1_11139)" stroke-width="0.985507"/>
<path d="M99.8847 33.8558C100.077 33.6633 100.077 33.3513 99.8847 33.1589L96.7488 30.023C96.5564 29.8306 96.2444 29.8306 96.052 30.023C95.8595 30.2155 95.8595 30.5275 96.052 30.7199L98.8394 33.5073L96.052 36.2948C95.8595 36.4872 95.8595 36.7992 96.052 36.9916C96.2444 37.1841 96.5564 37.1841 96.7488 36.9916L99.8847 33.8558ZM33.5073 34.0001H99.5362V33.0146H33.5073V34.0001Z" fill="url(#paint1_linear_1_11139)"/>
<defs>
<linearGradient id="paint0_linear_1_11139" x1="-3.62231" y1="3.49234" x2="66.7563" y2="8.93936" gradientUnits="userSpaceOnUse">
<stop offset="0.270833" stop-color="#A3A3A3"/>
<stop offset="0.412103" stop-color="#CCCCCC"/>
<stop offset="0.551716" stop-color="white"/>
<stop offset="0.677083" stop-color="#CCCCCC"/>
<stop offset="0.833333" stop-color="#A3A3A3"/>
</linearGradient>
<linearGradient id="paint1_linear_1_11139" x1="23.7981" y1="33.4826" x2="26.7631" y2="48.6352" gradientUnits="userSpaceOnUse">
<stop offset="0.270833" stop-color="#A3A3A3"/>
<stop offset="0.412103" stop-color="#CCCCCC"/>
<stop offset="0.551716" stop-color="white"/>
<stop offset="0.677083" stop-color="#CCCCCC"/>
<stop offset="0.833333" stop-color="#A3A3A3"/>
</linearGradient>
</defs>
</svg>
