<svg width="87" height="37" viewBox="0 0 87 37" fill="none" xmlns="http://www.w3.org/2000/svg">
<path d="M43.0974 0.5C30.2347 0.5 13.1506 3.26296 4.86823 14.7346C4.71973 14.9475 4.48777 15.0995 4.23461 15.1497C2.04589 15.608 0.97815 16.9671 0.908813 17.767C0.966801 19.2435 2.9985 19.4175 4.04434 19.4267C4.38449 19.4267 4.71899 19.6148 4.89932 19.9054C10.5885 28.8392 25.2621 34.1082 45.1253 34.1082C45.353 34.1082 45.5807 34.1881 45.7589 34.3316C48.9171 37.0995 53.3724 38.4466 55.2293 34.6831C55.3587 34.4165 55.609 34.2121 55.8947 34.1407C68.8889 31.0016 74.5703 29.0681 82.4689 20.8C82.715 20.5391 83.1046 20.4253 83.4504 20.5129C85.1031 20.945 85.8533 20.3319 86.016 19.7789C86.3866 18.2196 84.7234 17.6277 83.7672 17.1935C83.5445 17.0917 83.3606 16.9071 83.2602 16.683C75.1837 2.39115 57.2943 0.568667 43.0993 0.501503L43.0974 0.5ZM12.3106 11.7341C28.5478 13.7793 33.0373 14.9497 47.2775 26.224C48.6006 27.1391 50.3233 26.7919 52.1231 25.2029C60.2641 19.0506 65.5834 15.845 75.846 13.7765C76.3686 13.6676 76.9421 14.048 77.0496 14.5741C77.157 15.1003 76.7801 15.6788 76.2575 15.7869C66.3069 17.7924 61.4452 20.7017 53.4525 26.7339C50.766 29.04 48.0434 29.3845 46.0096 27.8513C31.8704 16.6568 28.2519 15.7842 12.0565 13.7447C11.5261 13.7029 11.0806 13.1782 11.1223 12.6436C11.1739 11.9096 11.7375 11.7123 12.3104 11.7335L12.3106 11.7341ZM79.1524 19.8885C79.1524 20.363 78.7811 20.8099 78.3179 20.8941C74.3607 21.8912 73.9222 22.3841 71.8247 25.5536C71.6437 25.8442 71.3099 26.0309 70.9698 26.0323C65.0012 26.0323 63.4201 26.8632 59.409 29.8942C58.9939 30.2867 58.2429 30.2188 57.9028 29.7591C57.5626 29.2994 57.714 28.5548 58.2054 28.2663C62.1819 25.2614 64.6923 24.0905 70.4947 24.0212C72.452 21.1663 73.8969 19.9005 77.811 18.9147C78.5592 18.728 79.1326 19.2931 79.1524 19.8885Z" fill="url(#paint0_linear_1_129)"/>
<defs>
<linearGradient id="paint0_linear_1_129" x1="-11.6135" y1="-0.400832" x2="88.8068" y2="17.7342" gradientUnits="userSpaceOnUse">
<stop offset="0.270833" stop-color="#A3A3A3"/>
<stop offset="0.412103" stop-color="#CCCCCC"/>
<stop offset="0.551716" stop-color="white"/>
<stop offset="0.677083" stop-color="#CCCCCC"/>
<stop offset="0.833333" stop-color="#A3A3A3"/>
</linearGradient>
</defs>
</svg>
