<svg width="53" height="67" viewBox="0 0 53 67" fill="none" xmlns="http://www.w3.org/2000/svg">
<path d="M52.2328 7.84532V35.5918V49.5121V56.4708C52.2328 58.7922 52.4677 60.9507 51.0617 63.1287C49.7664 65.1347 47.5839 66.3823 45.1971 66.4783C44.0542 66.5236 42.9124 66.4839 41.7706 66.4839H38.3133H24.4858H10.6131C8.12526 66.4839 6.28717 66.7429 4.01859 65.1363C2.07439 63.761 0.92355 61.5362 0.92355 59.1539V31.4087V17.4884V10.5297C0.92355 8.20833 0.688643 6.04985 2.09458 3.87077C3.3899 1.86476 5.57348 0.617726 7.95873 0.521662C9.10259 0.476391 10.2434 0.516129 11.3852 0.516129H14.8425H28.67H42.5427C45.0305 0.516129 46.8681 0.257079 49.1382 1.86321C51.0819 3.23902 52.2328 5.46381 52.2328 7.84558V7.84532ZM11.4288 8.98566V8.73113V8.60437C11.4288 8.543 11.3709 8.57922 11.3372 8.57972C11.1747 8.58626 11.0178 8.60789 10.8603 8.64511C10.5314 8.72359 10.2482 8.85588 9.97705 9.05708C9.38549 9.49319 9.1023 9.97509 9.00724 10.7039C8.99567 10.7869 8.99014 10.8699 8.98712 10.9539C8.9836 11.0857 9.10633 11.0208 9.18279 11.0208C9.22756 11.0208 9.39254 11.0586 9.39405 10.9761C9.39556 10.9062 9.40059 10.8378 9.40914 10.7683C9.4519 10.4278 9.56105 10.1416 9.75672 9.86038C10.1375 9.3121 10.7618 8.98566 11.4288 8.98566ZM11.4288 26.0879V25.8334V25.7066C11.4288 25.6447 11.3709 25.6804 11.3372 25.6819C11.1747 25.6885 11.0178 25.7091 10.8603 25.7473C10.5314 25.8258 10.2482 25.9581 9.97705 26.1593C9.38549 26.5954 9.1023 27.0773 9.00724 27.8062C8.99567 27.8892 8.99014 27.9727 8.98712 28.0562C8.9836 28.1874 9.10633 28.1231 9.18279 28.1231C9.22756 28.1231 9.39254 28.1608 9.39405 28.0783C9.39556 28.0084 9.40059 27.939 9.40914 27.87C9.4519 27.5305 9.56105 27.2433 9.75672 26.9621C10.1375 26.4148 10.7618 26.0879 11.4288 26.0879ZM11.4288 23.8077C10.7618 23.8077 10.1365 23.4802 9.75574 22.9325C9.56007 22.6503 9.45092 22.364 9.40866 22.024C9.40011 21.9546 9.39408 21.8857 9.39357 21.8158C9.39207 21.7328 9.22557 21.772 9.1808 21.772C9.10485 21.772 8.98311 21.7101 8.98664 21.8404C8.98865 21.9249 8.99519 22.0079 9.00676 22.0914C9.10284 22.8193 9.38603 23.3007 9.97657 23.7367C10.2477 23.9374 10.5319 24.0692 10.8599 24.1477C11.0173 24.1859 11.1748 24.2071 11.3367 24.2131C11.3714 24.2146 11.4293 24.2508 11.4293 24.1894V24.0627C11.4288 23.9772 11.4288 23.8932 11.4288 23.8077ZM11.4288 43.1905V42.936V42.8092C11.4288 42.7473 11.3709 42.783 11.3372 42.7856C11.1747 42.7921 11.0178 42.8137 10.8603 42.8504C10.5314 42.9299 10.2482 43.0617 9.97705 43.2614C9.38549 43.6985 9.1023 44.1799 9.00724 44.9093C8.99567 44.9913 8.99014 45.0753 8.98712 45.1593C8.9836 45.2911 9.10633 45.2262 9.18279 45.2262C9.22756 45.2262 9.39254 45.2644 9.39405 45.1814C9.39556 45.1115 9.40059 45.0421 9.40914 44.9732C9.4519 44.6326 9.56105 44.3474 9.75672 44.0652C10.1375 43.518 10.7618 43.1905 11.4288 43.1905ZM11.4288 40.9103C10.7618 40.9103 10.1365 40.5839 9.75574 40.0351C9.56007 39.7529 9.45092 39.4667 9.40866 39.1266C9.40011 39.0572 9.39408 38.9888 9.39357 38.9189C9.39207 38.8359 9.22557 38.8741 9.1808 38.8741C9.10485 38.8741 8.98311 38.8112 8.98664 38.9425C8.98865 39.026 8.99519 39.109 9.00676 39.1925C9.10284 39.9209 9.38603 40.4033 9.97657 40.8389C10.2477 41.0401 10.5319 41.1719 10.8599 41.2498C11.0173 41.2881 11.1748 41.3097 11.3367 41.3152C11.3714 41.3167 11.4293 41.3529 11.4293 41.2916V41.1638C11.4288 41.0798 11.4288 40.9953 11.4288 40.9103ZM11.4288 58.0138C10.7618 58.0138 10.1365 57.6864 9.75574 57.1376C9.56007 56.8564 9.45092 56.5702 9.40866 56.2291C9.40011 56.1597 9.39408 56.0913 9.39357 56.0214C9.39207 55.9384 9.22557 55.9766 9.1808 55.9766C9.10485 55.9766 8.98311 55.9147 8.98664 56.045C8.98865 56.1285 8.99519 56.2115 9.00676 56.296C9.10284 57.0244 9.38603 57.5063 9.97657 57.9413C10.2477 58.1425 10.5319 58.2743 10.8599 58.3533C11.0173 58.391 11.1748 58.4127 11.3367 58.4187C11.3714 58.4192 11.4293 58.4554 11.4293 58.3951V58.2673C11.4288 58.1828 11.4288 58.0983 11.4288 58.0138ZM41.725 58.0138V58.2684V58.3951C41.725 58.4565 41.7828 58.4203 41.8175 58.4198C41.98 58.4132 42.1364 58.3916 42.2934 58.3544C42.6223 58.2759 42.9065 58.1436 43.1777 57.9424C43.7692 57.5068 44.0529 57.0244 44.1485 56.2961C44.1601 56.2126 44.1656 56.1301 44.1681 56.0461C44.1726 55.9133 44.0489 55.9776 43.9724 55.9776C43.9277 55.9776 43.7627 55.9409 43.7612 56.0224C43.7592 56.0928 43.7541 56.1618 43.7461 56.2307C43.7028 56.5712 43.5932 56.8574 43.3985 57.1391C43.0182 57.6874 42.3929 58.0138 41.725 58.0138ZM41.725 40.9103V41.1648V41.2926C41.725 41.354 41.7828 41.3178 41.8175 41.3163C41.98 41.3107 42.1364 41.2891 42.2934 41.2509C42.6223 41.1729 42.9065 41.0411 43.1777 40.8399C43.7692 40.4038 44.0529 39.9214 44.1485 39.193C44.1601 39.11 44.1656 39.0265 44.1681 38.942C44.1726 38.8102 44.0489 38.8751 43.9724 38.8751C43.9277 38.8751 43.7627 38.8369 43.7612 38.9199C43.7592 38.9898 43.7541 39.0592 43.7461 39.1282C43.7028 39.4677 43.5932 39.7549 43.3985 40.0361C43.0182 40.5839 42.3929 40.9103 41.725 40.9103ZM41.725 43.1905C42.393 43.1905 43.0177 43.518 43.398 44.0667C43.5926 44.3489 43.7028 44.6352 43.745 44.9747C43.7536 45.0441 43.7596 45.113 43.7601 45.1839C43.7616 45.2654 43.9281 45.2272 43.9719 45.2272C44.0484 45.2272 44.1701 45.2901 44.1666 45.1593C44.1646 45.0748 44.158 44.9918 44.1469 44.9083C44.0509 44.1804 43.7677 43.699 43.1761 43.2619C42.9045 43.0622 42.6208 42.9305 42.2918 42.851C42.1344 42.8143 41.9774 42.7926 41.8165 42.7861C41.7813 42.7841 41.7234 42.7479 41.7234 42.8097V42.9365C41.7249 43.021 41.725 43.106 41.725 43.1905ZM41.725 23.8077V24.0622V24.189C41.725 24.2504 41.7828 24.2142 41.8175 24.2126C41.98 24.2061 42.1364 24.1855 42.2934 24.1473C42.6223 24.0688 42.9065 23.9365 43.1777 23.7363C43.7692 23.3002 44.0529 22.8183 44.1485 22.0894C44.1601 22.0059 44.1656 21.9229 44.1681 21.8394C44.1726 21.7076 44.0489 21.7715 43.9724 21.7715C43.9277 21.7715 43.7627 21.7338 43.7612 21.8163C43.7592 21.8862 43.7541 21.9556 43.7461 22.0255C43.7028 22.3651 43.5932 22.6513 43.3985 22.9335C43.0182 23.4808 42.3929 23.8077 41.725 23.8077ZM41.725 26.0879C42.393 26.0879 43.0177 26.4153 43.398 26.9631C43.5926 27.2443 43.7028 27.5315 43.745 27.8716C43.7536 27.941 43.7596 28.0099 43.7601 28.0793C43.7616 28.1623 43.9281 28.1241 43.9719 28.1241C44.0484 28.1241 44.1701 28.186 44.1666 28.0557C44.1646 27.9722 44.158 27.8892 44.1469 27.8057C44.0509 27.0778 43.7677 26.5954 43.1761 26.1593C42.9045 25.9581 42.6208 25.8263 42.2918 25.7474C42.1344 25.7091 41.9774 25.688 41.8165 25.682C41.7813 25.6805 41.7234 25.6443 41.7234 25.7066V25.8334C41.7249 25.9189 41.725 26.0039 41.725 26.0879ZM41.725 8.98566C42.393 8.98566 43.0177 9.31313 43.398 9.86091C43.5926 10.1421 43.7028 10.4293 43.745 10.7694C43.7536 10.8388 43.7596 10.9072 43.7601 10.9776C43.7616 11.0606 43.9281 11.0214 43.9719 11.0214C44.0484 11.0214 44.1701 11.0843 44.1666 10.9535C44.1646 10.87 44.158 10.786 44.1469 10.7035C44.0509 9.97459 43.7677 9.49322 43.1761 9.05712C42.9045 8.85591 42.6208 8.72463 42.2918 8.64515C42.1344 8.60742 41.9774 8.58579 41.8165 8.57976C41.7813 8.57926 41.7234 8.54203 41.7234 8.6034V8.73117C41.7249 8.81618 41.725 8.90115 41.725 8.98566ZM29.7537 58.0143C29.0857 58.0143 28.4609 57.6869 28.0807 57.1381C27.886 56.8569 27.7758 56.5707 27.7336 56.2296C27.724 56.1602 27.719 56.0918 27.7185 56.0219C27.7165 55.9389 27.5505 55.9771 27.5052 55.9771C27.4293 55.9771 27.3075 55.9152 27.311 56.0455C27.3131 56.129 27.3196 56.212 27.3307 56.2965C27.4267 57.0249 27.7099 57.5068 28.3005 57.9419C28.5731 58.1431 28.8563 58.2748 29.1848 58.3538C29.3427 58.3916 29.4997 58.4132 29.6606 58.4192C29.6953 58.4197 29.7537 58.4559 29.7537 58.3956V58.2678L29.7537 58.0143ZM23.4006 58.0143V58.2689V58.3956C23.4006 58.457 23.4589 58.4208 23.4931 58.4203C23.6546 58.4137 23.812 58.3921 23.97 58.3549C24.2989 58.2764 24.5821 58.1441 24.8543 57.9429C25.4448 57.5073 25.729 57.0249 25.8251 56.2966C25.8362 56.2131 25.8422 56.1306 25.8447 56.0466C25.8482 55.9138 25.725 55.9782 25.649 55.9782C25.6043 55.9782 25.4393 55.9414 25.4378 56.0229C25.4363 56.0934 25.4312 56.1623 25.4227 56.2312C25.3799 56.5717 25.2708 56.8579 25.0751 57.1396C24.6928 57.6879 24.0686 58.0143 23.4006 58.0143ZM29.7537 43.1914V42.9369V42.8101C29.7537 42.7482 29.6953 42.7839 29.6606 42.7865C29.4991 42.793 29.3427 42.8146 29.1848 42.8513C28.8568 42.9308 28.5726 43.0626 28.3004 43.2623C27.7099 43.6994 27.4257 44.1808 27.3296 44.9102C27.3186 44.9922 27.313 45.0762 27.311 45.1602C27.3065 45.292 27.4302 45.2271 27.5067 45.2271C27.5514 45.2271 27.7164 45.2653 27.7184 45.1823C27.7189 45.1124 27.724 45.043 27.7335 44.9741C27.7763 44.6335 27.8865 44.3483 28.0811 44.0661C28.4614 43.5189 29.0857 43.1914 29.7537 43.1914ZM29.7537 40.9112C29.0857 40.9112 28.4609 40.5848 28.0807 40.036C27.886 39.7538 27.7758 39.4676 27.7336 39.1275C27.724 39.0581 27.719 38.9897 27.7185 38.9198C27.7165 38.8368 27.5505 38.875 27.5052 38.875C27.4293 38.875 27.3075 38.8121 27.311 38.9434C27.3131 39.0269 27.3196 39.1099 27.3307 39.1934C27.4267 39.9218 27.7099 40.4042 28.3005 40.8398C28.5731 41.041 28.8563 41.1728 29.1848 41.2507C29.3427 41.289 29.4997 41.3106 29.6606 41.3161C29.6953 41.3176 29.7537 41.3538 29.7537 41.2925V41.1647L29.7537 40.9112ZM23.4006 40.9112V41.1658V41.2935C23.4006 41.3549 23.4589 41.3187 23.4931 41.3172C23.6546 41.3116 23.812 41.29 23.97 41.2518C24.2989 41.1738 24.5821 41.042 24.8543 40.8408C25.4448 40.4047 25.729 39.9223 25.8251 39.1939C25.8362 39.1109 25.8422 39.0274 25.8447 38.9429C25.8482 38.8112 25.725 38.876 25.649 38.876C25.6043 38.876 25.4393 38.8378 25.4378 38.9208C25.4363 38.9907 25.4312 39.0601 25.4227 39.1291C25.3799 39.4686 25.2708 39.7558 25.0751 40.037C24.6928 40.5848 24.0686 40.9112 23.4006 40.9112ZM23.4006 43.1914C24.0686 43.1914 24.6928 43.5189 25.0736 44.0676C25.2692 44.3498 25.3784 44.6361 25.4206 44.9756C25.4292 45.045 25.4342 45.1139 25.4357 45.1848C25.4372 45.2663 25.6042 45.2281 25.6475 45.2281C25.724 45.2281 25.8457 45.291 25.8422 45.1602C25.8402 45.0757 25.8336 44.9927 25.8226 44.9092C25.7265 44.1813 25.4433 43.6999 24.8527 43.2628C24.5811 43.0631 24.2974 42.9314 23.9684 42.8519C23.811 42.8152 23.6536 42.7935 23.4916 42.787C23.4579 42.785 23.399 42.7488 23.399 42.8106V42.9374C23.4005 43.0219 23.4006 43.1069 23.4006 43.1914ZM29.7537 26.0879V25.8334V25.7066C29.7537 25.6447 29.6953 25.6804 29.6606 25.6819C29.4991 25.6885 29.3427 25.7091 29.1848 25.7473C28.8568 25.8258 28.5726 25.9581 28.3004 26.1593C27.7099 26.5954 27.4257 27.0773 27.3296 27.8062C27.3186 27.8892 27.313 27.9727 27.311 28.0562C27.3065 28.1874 27.4302 28.1231 27.5067 28.1231C27.5514 28.1231 27.7164 28.1608 27.7184 28.0783C27.7189 28.0084 27.724 27.939 27.7335 27.87C27.7763 27.5305 27.8865 27.2433 28.0811 26.9621C28.4614 26.4148 29.0857 26.0879 29.7537 26.0879ZM29.7537 23.8077C29.0857 23.8077 28.4609 23.4802 28.0807 22.9325C27.886 22.6503 27.7758 22.364 27.7336 22.024C27.724 21.9546 27.719 21.8857 27.7185 21.8158C27.7165 21.7328 27.5505 21.772 27.5052 21.772C27.4293 21.772 27.3075 21.7101 27.311 21.8404C27.3131 21.9249 27.3196 22.0079 27.3307 22.0914C27.4267 22.8193 27.7099 23.3007 28.3005 23.7367C28.5731 23.9374 28.8563 24.0692 29.1848 24.1477C29.3427 24.1859 29.4997 24.2071 29.6606 24.2131C29.6953 24.2146 29.7537 24.2508 29.7537 24.1894V24.0627L29.7537 23.8077ZM23.4006 23.8077V24.0622V24.189C23.4006 24.2504 23.4589 24.2142 23.4931 24.2126C23.6546 24.2061 23.812 24.1855 23.97 24.1473C24.2989 24.0688 24.5821 23.9365 24.8543 23.7363C25.4448 23.3002 25.729 22.8183 25.8251 22.0894C25.8362 22.0059 25.8422 21.9229 25.8447 21.8394C25.8482 21.7076 25.725 21.7715 25.649 21.7715C25.6043 21.7715 25.4393 21.7338 25.4378 21.8163C25.4363 21.8862 25.4312 21.9556 25.4227 22.0255C25.3799 22.3651 25.2708 22.6513 25.0751 22.9335C24.6928 23.4808 24.0686 23.8077 23.4006 23.8077ZM23.4006 26.0879C24.0686 26.0879 24.6928 26.4153 25.0736 26.9631C25.2692 27.2443 25.3784 27.5315 25.4206 27.8716C25.4292 27.941 25.4342 28.0099 25.4357 28.0793C25.4372 28.1623 25.6042 28.1241 25.6475 28.1241C25.724 28.1241 25.8457 28.186 25.8422 28.0557C25.8402 27.9722 25.8336 27.8892 25.8226 27.8057C25.7265 27.0778 25.4433 26.5954 24.8527 26.1593C24.5811 25.9581 24.2974 25.8263 23.9684 25.7474C23.811 25.7091 23.6536 25.688 23.4916 25.682C23.4579 25.6805 23.399 25.6443 23.399 25.7066V25.8334C23.4005 25.9189 23.4006 26.0039 23.4006 26.0879ZM23.4006 8.98566C24.0686 8.98566 24.6928 9.31313 25.0736 9.86091C25.2692 10.1421 25.3784 10.4293 25.4206 10.7694C25.4292 10.8388 25.4342 10.9072 25.4357 10.9776C25.4372 11.0606 25.6042 11.0214 25.6475 11.0214C25.724 11.0214 25.8457 11.0843 25.8422 10.9535C25.8402 10.87 25.8336 10.786 25.8226 10.7035C25.7265 9.97459 25.4433 9.49322 24.8527 9.05712C24.5811 8.85591 24.2974 8.72463 23.9684 8.64515C23.811 8.60742 23.6536 8.58579 23.4916 8.57976C23.4579 8.57926 23.399 8.54203 23.399 8.6034V8.73117C23.4005 8.81618 23.4006 8.90115 23.4006 8.98566ZM29.7537 8.98566V8.73113V8.60437C29.7537 8.543 29.6953 8.57922 29.6606 8.57972C29.4991 8.58626 29.3427 8.60789 29.1848 8.64511C28.8568 8.72359 28.5726 8.85588 28.3004 9.05708C27.7099 9.49319 27.4257 9.97509 27.3296 10.7039C27.3186 10.7869 27.313 10.8699 27.311 10.9539C27.3065 11.0857 27.4302 11.0208 27.5067 11.0208C27.5514 11.0208 27.7164 11.0586 27.7184 10.9761C27.7189 10.9062 27.724 10.8378 27.7335 10.7683C27.7763 10.4278 27.8865 10.1416 28.0811 9.86038C28.4614 9.3121 29.0857 8.98566 29.7537 8.98566ZM27.31 58.42H25.8447V59.8863H27.31V58.42ZM27.31 41.3178H25.8447V42.7841H27.31V41.3178ZM7.51897 24.2155V25.6819H8.9853V24.2155H7.51897ZM27.31 24.2155H25.8447V25.6819H27.31V24.2155ZM45.6342 41.3178H44.1689V42.7841H45.6342V41.3178ZM7.51897 41.3178V42.7841H8.9853V41.3178H7.51897ZM45.6342 24.2155H44.1689V25.6819H45.6342V24.2155ZM27.31 7.11332H25.8447V8.57964H27.31V7.11332ZM7.51897 7.11332V8.57964H8.9853V7.11332H7.51897ZM45.6342 7.11332H44.1689V8.57964H45.6342V7.11332ZM45.6342 59.8867V58.4204H44.1689V59.8867H45.6342ZM7.51897 59.8867H8.9853V58.4204H7.51897V59.8867Z" fill="url(#paint0_linear_1_136)"/>
<defs>
<linearGradient id="paint0_linear_1_136" x1="-6.64023" y1="-1.12903" x2="55.6466" y2="2.62083" gradientUnits="userSpaceOnUse">
<stop offset="0.270833" stop-color="#A3A3A3"/>
<stop offset="0.412103" stop-color="#CCCCCC"/>
<stop offset="0.551716" stop-color="white"/>
<stop offset="0.677083" stop-color="#CCCCCC"/>
<stop offset="0.833333" stop-color="#A3A3A3"/>
</linearGradient>
</defs>
</svg>
