<svg width="86" height="35" viewBox="0 0 86 35" fill="none" xmlns="http://www.w3.org/2000/svg">
<path d="M75.8212 12.0775C74.5404 12.0775 73.3279 12.2244 72.2098 12.4826C71.2426 10.6895 69.9864 9.00241 68.4617 7.52006L68.4611 7.51938C68.0068 7.0788 67.5123 6.65393 66.9262 6.20036C62.7997 2.73783 53.5687 0.500061 43.4084 0.500061C33.2481 0.500061 24.0175 2.73783 19.9133 6.18322C19.304 6.65454 18.8095 7.07941 18.3552 7.52067C16.8306 9.00295 15.5745 10.6901 14.6072 12.4832C13.489 12.225 12.2765 12.0781 10.9958 12.0781C5.33923 12.0781 0.908813 14.8173 0.908813 18.3146C0.908813 21.8119 5.33923 24.551 10.9958 24.551C11.6065 24.551 12.1994 24.5135 12.7774 24.452C13.6046 27.8953 15.6305 30.7486 18.5869 32.5511C20.7667 33.8797 23.333 34.5559 26.0242 34.5559C27.7783 34.5559 29.5843 34.2684 31.3692 33.6878C33.1049 33.1235 34.8263 32.0545 36.4861 30.5115C40.7567 26.5401 46.0607 26.5401 50.3313 30.5115C51.9912 32.0552 53.7126 33.1236 55.4476 33.6878C59.9709 35.1598 64.6321 34.7452 68.2307 32.5511C71.187 30.7484 73.2137 27.8953 74.0403 24.452C74.6181 24.5135 75.2111 24.5511 75.8218 24.5511C81.4784 24.5511 85.9088 21.812 85.9088 18.3146C85.9095 14.8173 81.4791 12.0775 75.8225 12.0775L75.8212 12.0775ZM2.67101 18.314C2.67101 15.8891 6.48258 13.8398 10.995 13.8398C11.9793 13.8398 12.9268 13.9423 13.8119 14.1199C12.6241 16.9103 12.1384 19.8802 12.4629 22.7109C11.984 22.7587 11.495 22.7881 10.995 22.7881C6.48253 22.7881 2.67101 20.7395 2.67101 18.314ZM75.8212 22.7881C75.3212 22.7881 74.8321 22.7594 74.3533 22.7109C74.677 19.8802 74.1914 16.9103 73.0042 14.1199C73.8895 13.9423 74.8368 13.8398 75.8211 13.8398C80.3329 13.8398 84.1451 15.8891 84.1451 18.314C84.1444 20.7395 80.3329 22.7881 75.8212 22.7881Z" fill="url(#paint0_linear_1_132)"/>
<defs>
<linearGradient id="paint0_linear_1_132" x1="-11.5899" y1="-0.340517" x2="88.1871" y2="18.9337" gradientUnits="userSpaceOnUse">
<stop offset="0.270833" stop-color="#A3A3A3"/>
<stop offset="0.412103" stop-color="#CCCCCC"/>
<stop offset="0.551716" stop-color="white"/>
<stop offset="0.677083" stop-color="#CCCCCC"/>
<stop offset="0.833333" stop-color="#A3A3A3"/>
</linearGradient>
</defs>
</svg>
