<svg width="53" height="31" viewBox="0 0 53 31" fill="none" xmlns="http://www.w3.org/2000/svg">
<path d="M1.76294 1.86458C2.44002 1.18749 3.24169 0.848951 4.16794 0.848951C5.09238 0.848951 5.89315 1.18749 6.57023 1.86458L26.4088 21.7031L46.315 1.79687C46.947 1.16492 47.7369 0.848953 48.6848 0.848953C49.6327 0.848953 50.4452 1.18749 51.1223 1.86458C51.7994 2.54166 52.1379 3.34333 52.1379 4.26958C52.1379 5.19402 51.7994 5.99479 51.1223 6.67187L28.3046 29.4219C28.0338 29.6927 27.7404 29.885 27.4244 29.9987C27.1084 30.1107 26.7699 30.1667 26.4088 30.1667C26.0477 30.1667 25.7091 30.1107 25.3931 29.9987C25.0772 29.885 24.7838 29.6927 24.5129 29.4219L1.69523 6.60416C1.06329 5.97221 0.747314 5.19402 0.747314 4.26958C0.747314 3.34333 1.08586 2.54166 1.76294 1.86458Z" fill="url(#paint0_linear_1_141)"/>
<defs>
<linearGradient id="paint0_linear_1_141" x1="53.4064" y1="-3.46204" x2="51.8332" y2="32.1672" gradientUnits="userSpaceOnUse">
<stop offset="0.270833" stop-color="#A3A3A3"/>
<stop offset="0.412103" stop-color="#CCCCCC"/>
<stop offset="0.551716" stop-color="white"/>
<stop offset="0.677083" stop-color="#CCCCCC"/>
<stop offset="0.833333" stop-color="#A3A3A3"/>
</linearGradient>
</defs>
</svg>
