<svg width="21" height="21" viewBox="0 0 21 21" fill="none" xmlns="http://www.w3.org/2000/svg">
<path d="M6.20154 20.1546C5.65154 20.1546 5.18087 19.959 4.78954 19.5676C4.39754 19.1756 4.20154 18.7046 4.20154 18.1546C4.20154 17.6046 4.39754 17.1336 4.78954 16.7416C5.18087 16.3503 5.65154 16.1546 6.20154 16.1546C6.75154 16.1546 7.2222 16.3503 7.61354 16.7416C8.00554 17.1336 8.20154 17.6046 8.20154 18.1546C8.20154 18.7046 8.00554 19.1756 7.61354 19.5676C7.2222 19.959 6.75154 20.1546 6.20154 20.1546ZM16.2015 20.1546C15.6515 20.1546 15.1809 19.959 14.7895 19.5676C14.3975 19.1756 14.2015 18.7046 14.2015 18.1546C14.2015 17.6046 14.3975 17.1336 14.7895 16.7416C15.1809 16.3503 15.6515 16.1546 16.2015 16.1546C16.7515 16.1546 17.2225 16.3503 17.6145 16.7416C18.0059 17.1336 18.2015 17.6046 18.2015 18.1546C18.2015 18.7046 18.0059 19.1756 17.6145 19.5676C17.2225 19.959 16.7515 20.1546 16.2015 20.1546ZM6.20154 15.1546C5.45154 15.1546 4.88487 14.8253 4.50154 14.1666C4.11821 13.5086 4.10154 12.8546 4.45154 12.2046L5.80154 9.75463L2.20154 2.15463H1.17654C0.893205 2.15463 0.659871 2.05863 0.476538 1.86663C0.293205 1.6753 0.201538 1.43797 0.201538 1.15463C0.201538 0.871299 0.297538 0.633633 0.489538 0.441633C0.680871 0.250299 0.918205 0.154633 1.20154 0.154633H2.82654C3.00987 0.154633 3.18487 0.204633 3.35154 0.304633C3.5182 0.404633 3.6432 0.546299 3.72654 0.729633L4.40154 2.15463H19.1515C19.6015 2.15463 19.9099 2.3213 20.0765 2.65463C20.2432 2.98797 20.2349 3.33797 20.0515 3.70463L16.5015 10.1046C16.3182 10.438 16.0765 10.6963 15.7765 10.8796C15.4765 11.063 15.1349 11.1546 14.7515 11.1546H7.30154L6.20154 13.1546H17.2265C17.5099 13.1546 17.7432 13.2503 17.9265 13.4416C18.1099 13.6336 18.2015 13.8713 18.2015 14.1546C18.2015 14.438 18.1055 14.6753 17.9135 14.8666C17.7222 15.0586 17.4849 15.1546 17.2015 15.1546H6.20154Z" fill="url(#paint0_linear_1_119)"/>
<defs>
<linearGradient id="paint0_linear_1_119" x1="-2.73847" y1="-0.339014" x2="21.4624" y2="1.53348" gradientUnits="userSpaceOnUse">
<stop offset="0.270833" stop-color="#A3A3A3"/>
<stop offset="0.412103" stop-color="#CCCCCC"/>
<stop offset="0.551716" stop-color="white"/>
<stop offset="0.677083" stop-color="#CCCCCC"/>
<stop offset="0.833333" stop-color="#A3A3A3"/>
</linearGradient>
</defs>
</svg>
