<svg width="62" height="50" viewBox="0 0 62 50" fill="none" xmlns="http://www.w3.org/2000/svg">
<path d="M61.9648 13.7292V39.2809C60.6288 37.9072 58.7934 37.133 56.8768 37.1339H53.824V7.06409C53.8272 6.911 53.8204 6.75836 53.8036 6.60617H54.8416C56.7301 6.60844 58.5409 7.35938 59.876 8.69499C61.2116 10.0301 61.9625 11.8409 61.9648 13.7294V13.7292ZM9.04962 31.0284H35.5072V2.5356H41.6128V31.0284H49.7536C50.4687 31.0293 51.1706 31.2188 51.7888 31.5781V4.5704C51.7893 3.49056 51.3604 2.45519 50.5968 1.69205C49.8336 0.928393 48.7982 0.499535 47.7184 0.5H11.0848C8.3873 0.504543 5.80143 1.57802 3.89439 3.48558C1.98689 5.39262 0.913349 7.97849 0.908813 10.676V35.1089C2.82679 32.5408 5.84423 31.0284 9.04962 31.0284ZM56.8768 39.1692H9.04962C8.3223 39.1692 7.65044 39.5572 7.28701 40.1868C6.92359 40.8165 6.92359 41.5924 7.28701 42.222C7.65044 42.8516 8.32233 43.2396 9.04962 43.2396H56.8768C57.4388 43.2396 57.8944 43.6953 57.8944 44.2572C57.8944 44.8192 57.4388 45.2748 56.8768 45.2748H9.04962C7.59544 45.2748 6.25162 44.4989 5.52442 43.2396C4.79756 41.9803 4.79756 40.4285 5.52442 39.1692C6.25173 37.9099 7.59555 37.134 9.04962 37.134H49.7536C50.4809 37.134 51.1528 36.7461 51.5162 36.1164C51.8797 35.4868 51.8797 34.7108 51.5162 34.0812C51.1528 33.4516 50.4809 33.0636 49.7536 33.0636H9.04962C6.14126 33.0636 3.45374 34.6155 1.99956 37.134C0.545385 39.6525 0.545385 42.7563 1.99956 45.2748C3.45374 47.7933 6.14126 49.3452 9.04962 49.3452H56.8768C58.6944 49.3452 60.3744 48.3753 61.283 46.8012C62.192 45.2271 62.192 43.2873 61.283 41.7132C60.3744 40.1391 58.6944 39.1692 56.8768 39.1692Z" fill="url(#paint0_linear_1_139)"/>
<defs>
<linearGradient id="paint0_linear_1_139" x1="-8.06911" y1="-0.705613" x2="65.5864" y2="6.42013" gradientUnits="userSpaceOnUse">
<stop offset="0.270833" stop-color="#A3A3A3"/>
<stop offset="0.412103" stop-color="#CCCCCC"/>
<stop offset="0.551716" stop-color="white"/>
<stop offset="0.677083" stop-color="#CCCCCC"/>
<stop offset="0.833333" stop-color="#A3A3A3"/>
</linearGradient>
</defs>
</svg>
