<!-- Generated by IcoMoon.io -->
<svg version="1.1" fill="white" xmlns="http://www.w3.org/2000/svg" width="768" height="768" viewBox="0 0 768 768">
<title>bedtime</title>
<g id="icomoon-ignore">
</g>
<path d="M384 256.5q52.5 0 90 37.5t37.5 90-37.5 90-90 37.5-90-37.5-37.5-90 37.5-90 90-37.5zM384 576q79.5 0 135.75-56.25t56.25-135.75-56.25-135.75-135.75-56.25-135.75 56.25-56.25 135.75 56.25 135.75 135.75 56.25zM640.5 277.5l105 106.5-105 106.5v150h-150l-106.5 105-106.5-105h-150v-150l-105-106.5 105-106.5v-150h150l106.5-105 106.5 105h150v150z"></path>
</svg>
